<svg width="1037" height="322" viewBox="0 0 1037 322" fill="none" xmlns="http://www.w3.org/2000/svg">
<path d="M310.6 283V121.6H355.3V167.2L349 154C353.8 142.6 361.5 134 372.1 128.2C382.7 122.2 395.6 119.2 410.8 119.2V162.4C408.8 162.2 407 162.1 405.4 162.1C403.8 161.9 402.1 161.8 400.3 161.8C387.5 161.8 377.1 165.5 369.1 172.9C361.3 180.1 357.4 191.4 357.4 206.8V283H310.6ZM527.08 283V251.5L524.08 244.6V188.2C524.08 178.2 520.98 170.4 514.78 164.8C508.78 159.2 499.48 156.4 486.88 156.4C478.28 156.4 469.78 157.8 461.38 160.6C453.18 163.2 446.18 166.8 440.38 171.4L423.58 138.7C432.38 132.5 442.98 127.7 455.38 124.3C467.78 120.9 480.38 119.2 493.18 119.2C517.78 119.2 536.88 125 550.48 136.6C564.08 148.2 570.88 166.3 570.88 190.9V283H527.08ZM477.88 285.4C465.28 285.4 454.48 283.3 445.48 279.1C436.48 274.7 429.58 268.8 424.78 261.4C419.98 254 417.58 245.7 417.58 236.5C417.58 226.9 419.88 218.5 424.48 211.3C429.28 204.1 436.78 198.5 446.98 194.5C457.18 190.3 470.48 188.2 486.88 188.2H529.78V215.5H491.98C480.98 215.5 473.38 217.3 469.18 220.9C465.18 224.5 463.18 229 463.18 234.4C463.18 240.4 465.48 245.2 470.08 248.8C474.88 252.2 481.38 253.9 489.58 253.9C497.38 253.9 504.38 252.1 510.58 248.5C516.78 244.7 521.28 239.2 524.08 232L531.28 253.6C527.88 264 521.68 271.9 512.68 277.3C503.68 282.7 492.08 285.4 477.88 285.4ZM618.937 283V118C618.937 99.8 624.337 85.3 635.137 74.5C645.937 63.5 661.337 58 681.337 58C688.137 58 694.637 58.7 700.837 60.1C707.237 61.5 712.637 63.7 717.037 66.7L704.737 100.6C702.137 98.8 699.237 97.4 696.037 96.4C692.837 95.4 689.437 94.9 685.837 94.9C679.037 94.9 673.737 96.9 669.937 100.9C666.337 104.7 664.537 110.5 664.537 118.3V133.3L665.737 153.4V283H618.937ZM594.037 161.2V125.2H705.937V161.2H594.037ZM795.252 285.4C776.252 285.4 761.452 280.6 750.852 271C740.252 261.2 734.952 246.7 734.952 227.5V85.9H781.752V226.9C781.752 233.7 783.552 239 787.152 242.8C790.752 246.4 795.652 248.2 801.852 248.2C809.252 248.2 815.552 246.2 820.752 242.2L833.352 275.2C828.552 278.6 822.752 281.2 815.952 283C809.352 284.6 802.452 285.4 795.252 285.4ZM710.052 161.2V125.2H821.952V161.2H710.052ZM934.743 285.4C916.343 285.4 900.143 281.8 886.143 274.6C872.343 267.4 861.643 257.6 854.043 245.2C846.443 232.6 842.643 218.3 842.643 202.3C842.643 186.1 846.343 171.8 853.743 159.4C861.343 146.8 871.643 137 884.643 130C897.643 122.8 912.343 119.2 928.743 119.2C944.543 119.2 958.743 122.6 971.343 129.4C984.143 136 994.243 145.6 1001.64 158.2C1009.04 170.6 1012.74 185.5 1012.74 202.9C1012.74 204.7 1012.64 206.8 1012.44 209.2C1012.24 211.4 1012.04 213.5 1011.84 215.5H880.743V188.2H987.243L969.243 196.3C969.243 187.9 967.543 180.6 964.143 174.4C960.743 168.2 956.043 163.4 950.043 160C944.043 156.4 937.043 154.6 929.043 154.6C921.043 154.6 913.943 156.4 907.743 160C901.743 163.4 897.043 168.3 893.643 174.7C890.243 180.9 888.543 188.3 888.543 196.9V204.1C888.543 212.9 890.443 220.7 894.243 227.5C898.243 234.1 903.743 239.2 910.743 242.8C917.943 246.2 926.343 247.9 935.943 247.9C944.543 247.9 952.043 246.6 958.443 244C965.043 241.4 971.043 237.5 976.443 232.3L1001.34 259.3C993.943 267.7 984.643 274.2 973.443 278.8C962.243 283.2 949.343 285.4 934.743 285.4Z" fill="#3F6AE1"/>
<g filter="url(#filter0_d_20_159)">
<path d="M137.311 201.868L47.4887 34.2098C45.1497 29.8438 42.344 25.1022 37.4749 24.1943C35.7475 23.8723 33.7294 23.9035 31.4875 24.6487C24 27.1378 24 33.1114 24 33.1114V285.998C24 291.911 33.1693 296.578 41.9867 292.401C43.701 291.589 45.0772 290.232 46.2817 288.767L65.1563 265.802C67.9926 262.351 71.4876 259.398 73.9034 255.641C75.7953 252.698 76.9116 249.406 76.9116 246.671V215.309C76.8427 212.384 76.9937 210.434 80.4058 210.331H131.82C136.812 210.331 139.307 205.851 137.311 201.868Z" fill="#3F6AE1"/>
</g>
<path d="M105.258 80L79.2232 33C77.2207 29.5 77.2207 25 82.7279 25H157.828C229.423 27.5 287 87.473 287 161.5C287 224 237.434 287.5 157.828 293H83.2286C77.6925 291.466 76.9411 289.433 79.2232 284L104.257 238C106.259 234 108.262 232 112.031 232H157.828C186.366 232 225.919 207.5 225.919 161C225.919 116.5 198.883 88.5 157.327 85H112.267C108.605 84.7812 107.052 83.7144 105.258 80Z" fill="#3F6AE1"/>
<defs>
<filter id="filter0_d_20_159" x="24" y="24" width="122" height="278" filterUnits="userSpaceOnUse" color-interpolation-filters="sRGB">
<feFlood flood-opacity="0" result="BackgroundImageFix"/>
<feColorMatrix in="SourceAlpha" type="matrix" values="0 0 0 0 0 0 0 0 0 0 0 0 0 0 0 0 0 0 127 0" result="hardAlpha"/>
<feOffset dx="4" dy="4"/>
<feGaussianBlur stdDeviation="2"/>
<feComposite in2="hardAlpha" operator="out"/>
<feColorMatrix type="matrix" values="0 0 0 0 0 0 0 0 0 0 0 0 0 0 0 0 0 0 0.1 0"/>
<feBlend mode="normal" in2="BackgroundImageFix" result="effect1_dropShadow_20_159"/>
<feBlend mode="normal" in="SourceGraphic" in2="effect1_dropShadow_20_159" result="shape"/>
</filter>
</defs>
</svg>
